<svg width="30" height="24" viewBox="0 0 30 24" fill="none" xmlns="http://www.w3.org/2000/svg">
<path d="M26.316 6.18183L14.6797 13.4545L3.04327 6.18183V3.27274L14.6797 10.5455L26.316 3.27274M26.316 0.363647H3.04327C1.42873 0.363647 0.134186 1.65819 0.134186 3.27274V20.7273C0.134186 21.4988 0.440678 22.2387 0.986234 22.7843C1.5318 23.3299 2.27174 23.6364 3.04327 23.6364H26.316C27.0876 23.6364 27.8274 23.3299 28.373 22.7843C28.9186 22.2387 29.2251 21.4988 29.2251 20.7273V3.27274C29.2251 2.50119 28.9186 1.76126 28.373 1.2157C27.8274 0.670141 27.0876 0.363647 26.316 0.363647Z" fill="white"/>
</svg>
