<svg width="41" height="40" viewBox="0 0 41 40" fill="none" xmlns="http://www.w3.org/2000/svg">
<path d="M39.746 18.2181L22.2813 0.75435C21.2761 -0.25145 19.6449 -0.25145 18.6384 0.75435L15.0118 4.38098L19.6124 8.98153C20.6814 8.62028 21.9074 8.86262 22.7596 9.71483C23.6159 10.5725 23.8565 11.8089 23.4865 12.8814L27.9202 17.3153C28.9928 16.9457 30.2305 17.1848 31.0873 18.043C32.2846 19.2398 32.2846 21.1797 31.0873 22.3774C29.8896 23.5752 27.9497 23.5752 26.7514 22.3774C25.8508 21.4758 25.6283 20.1531 26.0842 19.0436L21.9494 14.9088L21.949 25.7898C22.2487 25.938 22.5225 26.1338 22.7596 26.3695C23.957 27.5664 23.957 29.5064 22.7596 30.7051C21.5619 31.9023 19.6211 31.9023 18.4252 30.7051C17.2278 29.5064 17.2278 27.5666 18.4252 26.3697C18.7121 26.0826 19.0531 25.8552 19.4285 25.7007V14.7184C19.0526 14.5649 18.7114 14.3374 18.4252 14.0494C17.5179 13.1435 17.2998 11.8124 17.7647 10.6984L13.2296 6.16289L1.25437 18.1373C0.248097 19.1441 0.248097 20.7755 1.25437 21.7815L18.7194 39.2455C19.7249 40.2515 21.3558 40.2515 22.3626 39.2455L39.7459 21.8626C40.7518 20.8563 40.752 19.2239 39.746 18.2181Z" fill="#F16529"/>
</svg>
