<svg width="41" height="40" viewBox="0 0 41 40" fill="none" xmlns="http://www.w3.org/2000/svg">
<path d="M20.5 1.66669C17.9986 1.66669 15.5217 2.15936 13.2107 3.1166C10.8998 4.07383 8.79998 5.47688 7.03125 7.2456C3.45912 10.8177 1.45233 15.6626 1.45233 20.7143C1.45233 29.1333 6.91899 36.2762 14.4809 38.8096C15.4333 38.9619 15.738 38.3714 15.738 37.8572V34.6382C10.4619 35.781 9.33805 32.0857 9.33805 32.0857C8.46185 29.8762 7.22377 29.2857 7.22377 29.2857C5.49042 28.1047 7.35709 28.1429 7.35709 28.1429C9.26185 28.2762 10.2714 30.1047 10.2714 30.1047C11.9285 33 14.7285 32.1429 15.8143 31.6857C15.9857 30.4476 16.4809 29.6096 17.0143 29.1333C12.7857 28.6572 8.34757 27.019 8.34757 19.7619C8.34757 17.6476 9.07138 15.9524 10.3095 14.6C10.119 14.1238 9.45234 12.1429 10.5 9.57145C10.5 9.57145 12.1 9.05716 15.738 11.5143C17.2429 11.0953 18.8809 10.8857 20.5 10.8857C22.119 10.8857 23.7572 11.0953 25.2619 11.5143C28.9 9.05716 30.5 9.57145 30.5 9.57145C31.5476 12.1429 30.8809 14.1238 30.6904 14.6C31.9286 15.9524 32.6523 17.6476 32.6523 19.7619C32.6523 27.0382 28.1952 28.6382 23.9476 29.1143C24.6333 29.7047 25.2619 30.8667 25.2619 32.6382V37.8572C25.2619 38.3714 25.5666 38.981 26.538 38.8096C34.1 36.2572 39.5476 29.1333 39.5476 20.7143C39.5476 18.2129 39.0549 15.736 38.0977 13.4251C37.1404 11.1141 35.7374 9.01435 33.9686 7.2456C32.1999 5.47688 30.1002 4.07383 27.7892 3.1166C25.4782 2.15936 23.0013 1.66669 20.5 1.66669Z" fill="white"/>
</svg>
