<svg width="33" height="32" viewBox="0 0 33 32" fill="none" xmlns="http://www.w3.org/2000/svg">
<path fill-rule="evenodd" clip-rule="evenodd" d="M17.0307 0.5C13.114 0.502035 9.32577 1.88925 6.34329 4.41361C3.36082 6.93798 1.37867 10.4348 0.75123 14.279C0.123794 18.1231 0.891992 22.0638 2.91848 25.3965C4.94496 28.7291 8.0976 31.2363 11.8126 32.4699C12.6322 32.622 12.9409 32.114 12.9409 31.6821C12.9409 31.2502 12.9245 29.9979 12.9191 28.6288C8.32933 29.6204 7.35948 26.692 7.35948 26.692C6.61091 24.7905 5.52904 24.2907 5.52904 24.2907C4.03191 23.2747 5.64106 23.2937 5.64106 23.2937C7.29938 23.4105 8.17088 24.9861 8.17088 24.9861C9.64069 27.4934 12.0312 26.7681 12.971 26.3443C13.1185 25.2822 13.5475 24.5596 14.0201 24.1494C10.3538 23.7365 6.50163 22.3294 6.50163 16.0435C6.4789 14.4133 7.08731 12.8368 8.20092 11.6402C8.03154 11.2272 7.46605 9.55938 8.36212 7.29387C8.36212 7.29387 9.74724 6.85377 12.9 8.97534C15.6041 8.23999 18.4573 8.23999 21.1615 8.97534C24.3115 6.85377 25.6938 7.29387 25.6938 7.29387C26.5927 9.55395 26.0272 11.2218 25.8578 11.6402C26.975 12.837 27.5846 14.4163 27.5598 16.0489C27.5598 22.3484 23.6995 23.7365 20.0277 24.1413C20.6178 24.652 21.1451 25.6489 21.1451 27.1809C21.1451 29.3758 21.126 31.1415 21.126 31.6821C21.126 32.1195 21.4238 32.6302 22.2598 32.4699C25.9752 31.2362 29.1281 28.7285 31.1546 25.3953C33.1811 22.0621 33.9489 18.1208 33.3207 14.2763C32.6926 10.4318 30.7094 6.93489 27.726 4.41097C24.7425 1.88705 20.9534 0.500742 17.0362 0.5H17.0307Z" fill="white"/>
<path d="M6.7799 24.0544C6.74439 24.1359 6.61325 24.1603 6.50671 24.1033C6.40015 24.0463 6.32093 23.9403 6.35918 23.8561C6.39743 23.7719 6.52583 23.7501 6.63238 23.8072C6.73893 23.8643 6.82088 23.9729 6.7799 24.0544Z" fill="white"/>
<path d="M7.44927 24.796C7.39268 24.8243 7.32795 24.8322 7.26615 24.8183C7.20435 24.8044 7.14934 24.7696 7.1105 24.7199C7.00394 24.6058 6.98208 24.4483 7.06404 24.3776C7.146 24.307 7.29354 24.3396 7.40009 24.4537C7.5066 24.5677 7.53121 24.7253 7.44927 24.796Z" fill="white"/>
<path d="M8.09954 25.7385C7.99841 25.8091 7.82635 25.7385 7.73073 25.5973C7.70426 25.5719 7.68322 25.5415 7.66886 25.5079C7.65449 25.4743 7.64706 25.4382 7.64706 25.4016C7.64706 25.3651 7.65449 25.329 7.66886 25.2954C7.68322 25.2618 7.70426 25.2314 7.73073 25.206C7.83178 25.1381 8.00391 25.206 8.09954 25.3446C8.19516 25.4831 8.19791 25.6679 8.09954 25.7385Z" fill="white"/>
<path d="M8.98191 26.6514C8.89179 26.7519 8.70873 26.7247 8.55845 26.5889C8.40818 26.453 8.37271 26.2683 8.46283 26.1706C8.55302 26.0727 8.73602 26.0999 8.89179 26.233C9.0475 26.3661 9.07754 26.5535 8.98191 26.6514Z" fill="white"/>
<path d="M10.2195 27.1837C10.1785 27.3114 9.99273 27.3684 9.80692 27.3141C9.62118 27.2597 9.49826 27.1076 9.53373 26.9772C9.56927 26.8469 9.75777 26.7871 9.94626 26.8469C10.1348 26.9066 10.255 27.0506 10.2195 27.1837Z" fill="white"/>
<path d="M11.5692 27.2761C11.5692 27.4092 11.4161 27.5233 11.2195 27.526C11.0227 27.5287 10.8616 27.4201 10.8616 27.2869C10.8616 27.1538 11.0145 27.0397 11.2112 27.037C11.4079 27.0343 11.5692 27.1403 11.5692 27.2761Z" fill="white"/>
<path d="M12.8259 27.0669C12.8505 27.2 12.7138 27.3385 12.5171 27.3711C12.3205 27.4038 12.1483 27.325 12.1237 27.1946C12.0992 27.0642 12.2412 26.9229 12.4324 26.8877C12.6237 26.8523 12.8013 26.9338 12.8259 27.0669Z" fill="white"/>
</svg>
