<svg width="33" height="32" viewBox="0 0 33 32" fill="none" xmlns="http://www.w3.org/2000/svg">
<path fill-rule="evenodd" clip-rule="evenodd" d="M16.0322 0C7.02095 0 0.0335693 6.60341 0.0335693 15.5186C0.0335693 20.1822 1.9454 24.2139 5.05712 26.9976C5.3171 27.2296 5.47709 27.5576 5.48509 27.9095L5.57308 30.7573C5.60108 31.6652 6.53699 32.2571 7.36892 31.8892L10.5446 30.4893C10.8126 30.3693 11.1166 30.3493 11.4006 30.4253C12.8604 30.8253 14.4123 31.0412 16.0322 31.0412C25.0434 31.0412 32.0307 24.4378 32.0307 15.5226C32.0307 6.60741 25.0434 0 16.0322 0Z" fill="white"/>
<path fill-rule="evenodd" clip-rule="evenodd" d="M6.42502 20.0582L11.1246 12.6029C11.8725 11.415 13.4724 11.123 14.5963 11.963L18.3359 14.7667C18.6799 15.0227 19.1519 15.0227 19.4918 14.7627L24.5394 10.9311C25.2113 10.4191 26.0912 11.227 25.6433 11.943L20.9397 19.3943C20.1918 20.5822 18.5919 20.8742 17.468 20.0342L13.7284 17.2305C13.3844 16.9745 12.9124 16.9745 12.5725 17.2345L7.52492 21.0662C6.85299 21.5781 5.97306 20.7742 6.42502 20.0582Z" fill="#090E18"/>
</svg>
